<svg width="36" height="36" viewBox="0 0 36 36" fill="none" xmlns="http://www.w3.org/2000/svg">
<path d="M3.176 0H32.824C33.6663 0 34.4742 0.334613 35.0698 0.930229C35.6654 1.52584 36 2.33367 36 3.176V32.824C36 33.6663 35.6654 34.4742 35.0698 35.0698C34.4742 35.6654 33.6663 36 32.824 36H3.176C2.33367 36 1.52584 35.6654 0.930229 35.0698C0.334613 34.4742 0 33.6663 0 32.824L0 3.176C0 2.33367 0.334613 1.52584 0.930229 0.930229C1.52584 0.334613 2.33367 0 3.176 0Z" fill="#FF5D56"/>
<path d="M27.183 11.408C25.9531 10.6757 24.4829 10.4617 23.0953 10.8129C21.7077 11.1641 20.5163 12.0518 19.7829 13.281C19.7829 13.29 19.774 13.29 19.774 13.299C19.6547 13.5093 19.6232 13.7581 19.6863 13.9915C19.7494 14.2248 19.902 14.4239 20.1109 14.5454C20.3199 14.6669 20.5684 14.7012 20.8024 14.6406C21.0364 14.58 21.2371 14.4296 21.3609 14.222C21.5276 13.9373 21.7359 13.6791 21.9789 13.456C22.4918 12.9724 23.1365 12.6517 23.8316 12.5346C24.5267 12.4174 25.2409 12.509 25.884 12.7977C26.527 13.0865 27.07 13.5594 27.4442 14.1568C27.8185 14.7541 28.0072 15.4491 27.9865 16.1536C27.9658 16.8582 27.7366 17.5409 27.3279 18.1152C26.9193 18.6896 26.3495 19.1298 25.6906 19.3803C25.0317 19.6308 24.3134 19.6803 23.6263 19.5226C22.9393 19.3648 22.3145 19.0069 21.8309 18.494L15.907 12.477C14.7241 11.3267 13.1457 10.673 11.4959 10.65C10.0657 10.65 8.69384 11.2174 7.68146 12.2277C6.66908 13.238 6.09886 14.6087 6.09595 16.039C6.15717 17.0515 6.4853 18.0299 7.04703 18.8745C7.60875 19.7192 8.38403 20.4002 9.29413 20.8482C10.2042 21.2962 11.2167 21.4954 12.2287 21.4255C13.2407 21.3555 14.2161 21.019 15.0559 20.45V22.203C15.0559 24.796 13.9759 25.996 11.6509 25.996C10.8813 25.9258 10.1428 25.6578 9.50732 25.218C8.8718 24.7782 8.36081 24.1816 8.02396 23.486C7.96578 23.3805 7.88738 23.2876 7.79327 23.2124C7.69917 23.1373 7.5912 23.0814 7.47549 23.0479C7.24182 22.9804 6.99092 23.0085 6.77795 23.126C6.56499 23.2435 6.40739 23.4408 6.33987 23.6744C6.27236 23.9081 6.30045 24.159 6.41794 24.372C6.91185 25.3555 7.65477 26.1924 8.57272 26.7994C9.49067 27.4065 10.5516 27.7625 11.6499 27.832C14.9809 27.832 16.8919 25.783 16.8919 22.203V18.154C16.9146 17.9512 16.8684 17.7467 16.7607 17.5734C16.6529 17.4002 16.49 17.2682 16.2981 17.1989C16.1062 17.1296 15.8965 17.1269 15.7029 17.1914C15.5093 17.2558 15.3431 17.3835 15.231 17.554C15.222 17.563 15.2219 17.572 15.2119 17.582C15.2019 17.592 15.184 17.619 15.175 17.637C14.8566 18.2743 14.3557 18.8025 13.7361 19.1542C13.1166 19.5059 12.4064 19.6653 11.696 19.612C10.7281 19.6256 9.79309 19.261 9.08994 18.5957C8.38678 17.9305 7.97096 17.0171 7.93094 16.05C7.93147 15.1055 8.30693 14.1997 8.97482 13.5319C9.64271 12.864 10.5484 12.4885 11.493 12.488C12.648 12.5151 13.7522 12.9686 14.593 13.761L20.5169 19.768C21.0916 20.3687 21.7971 20.8286 22.5786 21.112C23.3602 21.3953 24.1966 21.4944 25.0226 21.4015C25.8487 21.3086 26.6422 21.0262 27.3413 20.5764C28.0403 20.1265 28.6261 19.5213 29.0529 18.808C29.7855 17.5785 30 16.1085 29.6494 14.721C29.2987 13.3335 28.4116 12.1419 27.183 11.408Z" fill="white"/>
</svg>
